<?xml version="1.0" encoding="UTF-8"?>
<svg version="1.1" xmlns="http://www.w3.org/2000/svg" width="512" height="512">
<path d="M0 0 C0.96164062 0.69222656 1.92328125 1.38445313 2.9140625 2.09765625 C22.86106261 16.70999354 41.54210506 33.85696671 56 54 C57.14082031 55.55847656 57.14082031 55.55847656 58.3046875 57.1484375 C82.47421357 91.01922663 97.7820785 130.55646894 102 172 C102.11085938 172.97582031 102.22171875 173.95164063 102.3359375 174.95703125 C107.58872638 229.11754362 93.60478217 288.93948355 61 333 C60.30777344 333.96164062 59.61554688 334.92328125 58.90234375 335.9140625 C44.28138821 355.8728272 27.13077371 374.50584293 7 389 C6.13503906 389.63679688 5.27007812 390.27359375 4.37890625 390.9296875 C1.95256986 392.6766497 -0.50524525 394.35237381 -3 396 C-3.88945312 396.5878125 -4.77890625 397.175625 -5.6953125 397.78125 C-59.98468288 432.36768961 -125.17327405 444.0544292 -188.13037109 430.65673828 C-223.22581281 422.62485652 -255.7926561 407.38861586 -284 385 C-284.96421875 384.24074219 -285.9284375 383.48148437 -286.921875 382.69921875 C-302.20715481 370.2265856 -316.48424343 356.04398627 -328 340 C-328.76054687 338.96101563 -329.52109375 337.92203125 -330.3046875 336.8515625 C-368.39907793 283.4666901 -382.03123638 218.42249545 -371.51220703 154.01318359 C-364.75477827 115.77301759 -348.27409955 79.3001872 -324 49 C-323.24203125 48.03835937 -322.4840625 47.07671875 -321.703125 46.0859375 C-309.23210579 30.78763754 -295.03215652 16.54315269 -279 5 C-278.13503906 4.36320312 -277.27007812 3.72640625 -276.37890625 3.0703125 C-273.95256986 1.3233503 -271.49475475 -0.35237381 -269 -2 C-267.66582031 -2.88171875 -267.66582031 -2.88171875 -266.3046875 -3.78125 C-187.28456387 -54.123052 -77.04230632 -57.01130668 0 0 Z " fill="#E02F2F" transform="translate(392,59)"/>
<path d="M0 0 C7.92 0 15.84 0 24 0 C24 4.95 24 9.9 24 15 C25.5778125 14.87625 25.5778125 14.87625 27.1875 14.75 C41.91717255 14.82766084 57.32607788 23.40196585 67.6015625 33.40625 C79.12195346 45.86478354 86.3289045 61.95178332 86 79 C82.01743895 79.57682702 78.03388487 80.14618681 74.04931641 80.70898438 C72.69714379 80.90100126 71.34524677 81.09497029 69.99365234 81.29101562 C62.95746166 82.31030119 56.1169462 83.2904876 49 83 C48.83564453 82.07380859 48.83564453 82.07380859 48.66796875 81.12890625 C46.49855649 69.54107004 43.67062641 58.57755504 33.4375 51.5625 C30.30256572 49.60107053 27.50775504 48.40310202 24 47 C24 71.75 24 96.5 24 122 C26.31 122.33 28.62 122.66 31 123 C48.19194402 126.77508563 62.4220285 133.68498261 75 146 C75.55429687 146.51820313 76.10859375 147.03640625 76.6796875 147.5703125 C88.71227744 159.9931486 92.53282365 178.24041724 92.34765625 194.8972168 C91.76596256 213.9802142 85.3233218 231.17131082 72 245 C71.31421875 245.71414063 70.6284375 246.42828125 69.921875 247.1640625 C56.88618404 259.66866975 41.78991868 264.72929152 24 266 C24 275.9 24 285.8 24 296 C16.08 296 8.16 296 0 296 C0 286.43 0 276.86 0 267 C-4.29 266.34 -8.58 265.68 -13 265 C-16.12362206 264.18239066 -19.08821689 263.35490023 -22.125 262.3125 C-22.88925293 262.05267334 -23.65350586 261.79284668 -24.44091797 261.52514648 C-30.92542787 259.21669387 -36.51696826 256.18855545 -42 252 C-43.06927734 251.20142578 -43.06927734 251.20142578 -44.16015625 250.38671875 C-58.75244021 238.6060502 -68.00480032 218.42625587 -70 200 C-70.06387119 196.66541803 -70.04781971 193.33470956 -70 190 C-65.51682802 189.14083962 -61.03277733 188.28648144 -56.54785156 187.43652344 C-55.02286197 187.14682078 -53.49811896 186.85581689 -51.97363281 186.56347656 C-49.7799358 186.1430418 -47.58538905 185.72732377 -45.390625 185.3125 C-44.7113092 185.18125732 -44.03199341 185.05001465 -43.33209229 184.91479492 C-40.12732146 184.31361689 -37.28071212 184 -34 184 C-33.90501221 184.54301758 -33.81002441 185.08603516 -33.7121582 185.64550781 C-30.70291281 202.52585644 -27.45660417 218.94208983 -12.5 229.4375 C-8.41776675 232.06740027 -4.78764381 233.20463357 0 235 C0 207.28 0 179.56 0 151 C-1.98 150.67 -3.96 150.34 -6 150 C-24.7149655 145.92562435 -44.12927105 135.56567643 -54.9375 119.5 C-57.87033315 114.50928393 -60.18558812 109.49363596 -62 104 C-62.2990625 103.15695313 -62.598125 102.31390625 -62.90625 101.4453125 C-68.18395188 84.19504616 -65.78835329 65.12065808 -57.8125 49.1875 C-54.27571936 43.02836277 -50.03496892 37.98196925 -45 33 C-44.40960938 32.37609375 -43.81921875 31.7521875 -43.2109375 31.109375 C-32.19283615 20.33396311 -16.00311355 15.22976341 -1 14 C-0.67 9.38 -0.34 4.76 0 0 Z " fill="#FEFDFD" transform="translate(245,108)"/>
<path d="M0 0 C32.3871315 29.69443696 45.84687017 88.87939763 48 131 C49.93285661 182.5140802 37.04534039 237.04683731 6 279 C5.30777344 279.96164062 4.61554688 280.92328125 3.90234375 281.9140625 C-10.71861179 301.8728272 -27.86922629 320.50584293 -48 335 C-48.86496094 335.63679688 -49.72992188 336.27359375 -50.62109375 336.9296875 C-53.04743014 338.6766497 -55.50524525 340.35237381 -58 342 C-58.88945312 342.5878125 -59.77890625 343.175625 -60.6953125 343.78125 C-114.98468288 378.36768961 -180.17327405 390.0544292 -243.13037109 376.65673828 C-278.22581281 368.62485652 -310.7926561 353.38861586 -339 331 C-339.96421875 330.24074219 -340.9284375 329.48148437 -341.921875 328.69921875 C-357.20333684 316.22970103 -371.49738019 302.04926346 -383 286 C-383.391875 285.45827148 -383.78375 284.91654297 -384.1875 284.35839844 C-389.79435061 276.5798154 -395.58638398 268.53040991 -400 260 C-399.67 259.34 -399.34 258.68 -399 258 C-398.18208984 259.01707031 -398.18208984 259.01707031 -397.34765625 260.0546875 C-385.23393583 275.00529629 -372.32239374 289.27326133 -357 301 C-356.44086914 301.43022461 -355.88173828 301.86044922 -355.30566406 302.30371094 C-346.25150949 309.23326216 -336.92307491 315.39185244 -327 321 C-326.05447266 321.54454834 -326.05447266 321.54454834 -325.08984375 322.10009766 C-304.43275732 333.92575799 -282.15052321 341.718032 -259 347 C-258.05946777 347.22445801 -257.11893555 347.44891602 -256.14990234 347.68017578 C-219.73231666 356.06542302 -176.45990615 353.26029166 -141 342 C-140.21431641 341.75411133 -139.42863281 341.50822266 -138.61914062 341.25488281 C-94.01356162 327.06867114 -52.98904454 299.98253326 -24 263 C-23.29230469 262.10925781 -22.58460938 261.21851563 -21.85546875 260.30078125 C-6.43447691 240.37852692 5.18186539 218.52668982 14 195 C14.33290039 194.13270264 14.66580078 193.26540527 15.00878906 192.37182617 C17.5203344 185.69806953 19.43533319 178.98655792 21.125 172.0625 C21.37636719 171.06798828 21.62773437 170.07347656 21.88671875 169.04882812 C30.27941058 135.14850484 30.65312951 99.04569765 23 65 C22.72078685 63.67720295 22.44215629 62.35428282 22.1640625 61.03125 C17.80105424 40.81933825 10.33205142 22.60411965 0.99047852 4.1887207 C0 2 0 2 0 0 Z " fill="#C01D1D" transform="translate(447,113)"/>
<path d="M0 0 C9.47815516 1.89563103 20.3800044 6.77408465 26 15 C31.93009277 24.91389868 32.59311556 36.04267929 30.375 47.25 C25.37031789 60.89913302 19.90888354 68.52769905 6.76953125 74.8359375 C4 76 4 76 0 77 C0 51.59 0 26.18 0 0 Z " fill="#E03030" transform="translate(269,266)"/>
<path d="M0 0 C0 22.77 0 45.54 0 69 C-6.703405 67.88276583 -10.46493035 65.69305626 -16 62 C-16.59425781 61.60683594 -17.18851563 61.21367187 -17.80078125 60.80859375 C-23.64333022 56.47574736 -27.27002844 49.33078374 -28.71484375 42.2890625 C-30.02230864 31.79352245 -29.45988258 22.97571694 -23.01171875 14.3359375 C-17.2780611 7.62191351 -9.42369079 0 0 0 Z " fill="#E03434" transform="translate(245,154)"/>
<path d="M0 0 C3.9036874 3.46994436 6.36588975 7.55224006 9 12 C7.68 12 6.36 12 5 12 C4.16180842 10.37750059 3.3295884 8.75191503 2.5 7.125 C2.0359375 6.22007813 1.571875 5.31515625 1.09375 4.3828125 C0 2 0 2 0 0 Z " fill="#D01F1F" transform="translate(447,113)"/>
</svg>
