<svg width="92" height="34" viewBox="0 0 92 34" fill="none" xmlns="http://www.w3.org/2000/svg">
<g clip-path="url(#clip0_1380_539)">
<path d="M7.75781 10.0286C7.75781 12.4838 8.73855 14.8384 10.4843 16.5744C12.23 18.3105 14.5977 19.2858 17.0666 19.2858C19.5354 19.2858 21.9031 18.3105 23.6488 16.5744C25.3946 14.8384 26.3753 12.4838 26.3753 10.0286C26.3753 7.57348 25.3946 5.21889 23.6488 3.48284C21.9031 1.74679 19.5354 0.771484 17.0666 0.771484C14.5977 0.771484 12.23 1.74679 10.4843 3.48284C8.73855 5.21889 7.75781 7.57348 7.75781 10.0286Z" fill="#3BB54A"/>
<path d="M17.0669 20.0571C11.4817 20.0571 6.98242 15.5829 6.98242 10.0286C6.98242 4.47429 11.4817 0 17.0669 0C22.6521 0 27.1514 4.47429 27.1514 10.0286C27.1514 15.5829 22.6521 20.0571 17.0669 20.0571ZM17.0669 1.54286C12.335 1.54286 8.53388 5.32286 8.53388 10.0286C8.53388 14.7343 12.335 18.5143 17.0669 18.5143C21.7988 18.5143 25.5999 14.7343 25.5999 10.0286C25.5999 5.32286 21.7988 1.54286 17.0669 1.54286Z" fill="#0B3A5B"/>
<path d="M12.1012 16.8942L23.9699 5.09136C23.1166 3.93422 21.953 3.0085 20.6342 2.39136L9.30859 13.6542C9.92918 14.9656 10.9376 16.0456 12.1012 16.8942ZM17.0659 18.5142C21.7978 18.5142 25.5989 14.7342 25.5989 10.0285C25.5989 8.87136 25.3662 7.79136 24.9783 6.7885L13.8078 17.8971C14.8163 18.2828 15.9023 18.5142 17.0659 18.5142Z" fill="#89C763"/>
<path d="M10.8594 10.0286C10.8594 11.6654 11.5132 13.2351 12.677 14.3925C13.8408 15.5498 15.4193 16.2 17.0652 16.2C18.7111 16.2 20.2896 15.5498 21.4534 14.3925C22.6172 13.2351 23.271 11.6654 23.271 10.0286C23.271 9.21816 23.1105 8.41566 22.7986 7.6669C22.4868 6.91815 22.0297 6.23782 21.4534 5.66475C20.8771 5.09168 20.193 4.63709 19.4401 4.32695C18.6872 4.01681 17.8802 3.85718 17.0652 3.85718C16.2502 3.85718 15.4433 4.01681 14.6903 4.32695C13.9374 4.63709 13.2533 5.09168 12.677 5.66475C12.1008 6.23782 11.6436 6.91815 11.3318 7.6669C11.0199 8.41566 10.8594 9.21816 10.8594 10.0286Z" fill="#89C763"/>
<path d="M17.0655 3.85712C20.4788 3.85712 23.2714 6.63426 23.2714 10.0285C23.2714 13.4228 20.4788 16.2 17.0655 16.2C13.6523 16.2 10.8597 13.4228 10.8597 10.0285C10.8597 6.63426 13.6523 3.85712 17.0655 3.85712ZM17.0655 3.08569C13.1869 3.08569 10.084 6.17141 10.084 10.0285C10.084 13.8857 13.1869 16.9714 17.0655 16.9714C20.9442 16.9714 24.0471 13.8857 24.0471 10.0285C24.0471 6.17141 20.9442 3.08569 17.0655 3.08569Z" fill="#0B3A5B"/>
<path d="M11.6351 10.8C11.6351 7.40575 14.4277 4.62861 17.8409 4.62861C19.3924 4.62861 20.7111 5.16861 21.7972 6.09432C20.7111 4.70575 19.0045 3.85718 17.0652 3.85718C13.652 3.85718 10.8594 6.63432 10.8594 10.0286C10.8594 11.9572 11.7127 13.6543 13.109 14.7343C12.1781 13.6543 11.6351 12.3429 11.6351 10.8Z" fill="#3BB54A"/>
<path d="M18.851 4.16577L11.0938 11.8801C11.5592 13.2686 12.4901 14.5029 13.7312 15.2743L22.2642 6.78863C21.4885 5.4772 20.3249 4.55149 18.851 4.16577Z" fill="#AED477"/>
<path d="M18.3842 4.62862C19.7029 4.70577 20.8665 5.24577 21.875 6.01719C21.0993 5.09148 20.0908 4.47434 18.9272 4.08862L18.3842 4.62862ZM13.1092 14.7343C12.3335 13.8086 11.7905 12.5743 11.7129 11.2629L11.1699 11.8029C11.4802 12.9601 12.1784 14.0401 13.1092 14.7343Z" fill="#89C763"/>
<path d="M17.0662 16.1999C20.4794 16.1999 23.2721 13.4227 23.2721 10.0285C23.2721 9.5656 23.1945 9.0256 23.1169 8.56274L15.6699 15.9685C16.0578 16.1227 16.6008 16.1999 17.0662 16.1999Z" fill="#AED477"/>
<path d="M17.8415 9.25705H16.2901C15.8246 9.25705 15.5143 8.94847 15.5143 8.48562C15.5143 8.02276 15.8246 7.71419 16.2901 7.71419H18.6173C19.0827 7.71419 19.393 7.40562 19.393 6.94276C19.393 6.4799 19.0827 6.17133 18.6173 6.17133H17.8415C17.8415 5.70847 17.5312 5.3999 17.0658 5.3999C16.6004 5.3999 16.2901 5.70847 16.2901 6.17133C14.9713 6.17133 13.9629 7.17419 13.9629 8.48562C13.9629 9.79705 14.9713 10.7999 16.2901 10.7999H17.8415C18.307 10.7999 18.6173 11.1085 18.6173 11.5713C18.6173 12.0342 18.307 12.3428 17.8415 12.3428H15.5143C15.0489 12.3428 14.7386 12.6513 14.7386 13.1142C14.7386 13.577 15.0489 13.8856 15.5143 13.8856H16.2901C16.2901 14.3485 16.6004 14.657 17.0658 14.657C17.5312 14.657 17.8415 14.3485 17.8415 13.8856C19.1603 13.8856 20.1687 12.8828 20.1687 11.5713C20.1687 10.2599 19.1603 9.25705 17.8415 9.25705Z" fill="#0B3A5B"/>
<path d="M0.775391 23.9144C0.775391 26.3695 1.75613 28.7241 3.50186 30.4602C5.24759 32.1962 7.6153 33.1715 10.0841 33.1715C12.553 33.1715 14.9207 32.1962 16.6664 30.4602C18.4121 28.7241 19.3929 26.3695 19.3929 23.9144C19.3929 21.4592 18.4121 19.1046 16.6664 17.3686C14.9207 15.6325 12.553 14.6572 10.0841 14.6572C7.6153 14.6572 5.24759 15.6325 3.50186 17.3686C1.75613 19.1046 0.775391 21.4592 0.775391 23.9144Z" fill="#F5B445"/>
<path d="M10.0845 33.9429C4.49923 33.9429 0 29.4686 0 23.9143C0 18.36 4.49923 13.8857 10.0845 13.8857C15.6697 13.8857 20.169 18.36 20.169 23.9143C20.169 29.4686 15.6697 33.9429 10.0845 33.9429ZM10.0845 15.4286C5.35253 15.4286 1.55146 19.2086 1.55146 23.9143C1.55146 28.62 5.35253 32.4 10.0845 32.4C14.8164 32.4 18.6175 28.62 18.6175 23.9143C18.6175 19.2086 14.8164 15.4286 10.0845 15.4286Z" fill="#0B3A5B"/>
<path d="M5.12075 30.78L16.9894 18.9771C16.1361 17.82 14.9725 16.8942 13.6538 16.2771L2.32812 27.54C2.94871 28.8514 3.95716 29.9314 5.12075 30.78ZM10.0854 32.4C14.8174 32.4 18.6184 28.62 18.6184 23.9142C18.6184 22.7571 18.3857 21.6771 17.9979 20.6742L6.82735 31.7828C7.8358 32.1685 8.92182 32.4 10.0854 32.4Z" fill="#FFCB5B"/>
<path d="M3.87891 23.9143C3.87891 25.5511 4.53273 27.1208 5.69655 28.2782C6.86037 29.4356 8.43885 30.0858 10.0847 30.0858C11.7306 30.0858 13.3091 29.4356 14.4729 28.2782C15.6367 27.1208 16.2906 25.5511 16.2906 23.9143C16.2906 22.2776 15.6367 20.7079 14.4729 19.5505C13.3091 18.3931 11.7306 17.7429 10.0847 17.7429C8.43885 17.7429 6.86037 18.3931 5.69655 19.5505C4.53273 20.7079 3.87891 22.2776 3.87891 23.9143Z" fill="#FFCB5B"/>
<path d="M10.0851 17.7429C13.4983 17.7429 16.2909 20.52 16.2909 23.9143C16.2909 27.3086 13.4983 30.0857 10.0851 30.0857C6.67187 30.0857 3.87924 27.3086 3.87924 23.9143C3.87924 20.52 6.67187 17.7429 10.0851 17.7429ZM10.0851 16.9714C6.20643 16.9714 3.10352 20.0571 3.10352 23.9143C3.10352 27.7714 6.20643 30.8572 10.0851 30.8572C13.9637 30.8572 17.0666 27.7714 17.0666 23.9143C17.0666 20.0571 13.9637 16.9714 10.0851 16.9714Z" fill="#0B3A5B"/>
<path d="M4.65464 24.6858C4.65464 21.2915 7.44726 18.5143 10.8605 18.5143C12.4119 18.5143 13.7307 19.0543 14.8167 19.9801C13.7307 18.5915 12.0241 17.7429 10.0847 17.7429C6.67153 17.7429 3.87891 20.5201 3.87891 23.9143C3.87891 25.8429 4.73221 27.5401 6.12852 28.6201C5.19765 27.5401 4.65464 26.2286 4.65464 24.6858Z" fill="#F6B545"/>
<path d="M11.8686 18.0515L4.11133 25.7658C4.57677 27.1544 5.50764 28.3887 6.74881 29.1601L15.2818 20.6744C14.5061 19.3629 13.3425 18.4372 11.8686 18.0515Z" fill="#FFE27A"/>
<path d="M11.4037 18.5144C12.7225 18.5915 13.8861 19.1315 14.8945 19.9029C14.1188 18.9772 13.1103 18.3601 11.9467 17.9744L11.4037 18.5144ZM6.12878 28.6201C5.35305 27.6944 4.81004 26.4601 4.73246 25.1487L4.18945 25.6887C4.49974 26.8458 5.1979 27.9258 6.12878 28.6201Z" fill="#FFCB5B"/>
<path d="M10.0838 30.0856C13.497 30.0856 16.2896 27.3085 16.2896 23.9142C16.2896 23.4513 16.2121 22.9113 16.1345 22.4485L8.6875 29.8542C9.07536 30.0085 9.61837 30.0856 10.0838 30.0856Z" fill="#FFE27A"/>
<path d="M12.878 23.5285C13.0331 23.1428 13.1883 22.7571 13.1883 22.3714C13.1883 21.0599 12.1798 20.0571 10.8611 20.0571C10.8611 19.5942 10.5508 19.2856 10.0853 19.2856C9.6199 19.2856 9.30961 19.5942 9.30961 20.0571H7.75815C7.29271 20.0571 6.98242 20.3656 6.98242 20.8285C6.98242 21.2914 7.29271 21.5999 7.75815 21.5999V26.2285C7.29271 26.2285 6.98242 26.5371 6.98242 26.9999C6.98242 27.4628 7.29271 27.7714 7.75815 27.7714H9.30961C9.30961 28.2342 9.6199 28.5428 10.0853 28.5428C10.5508 28.5428 10.8611 28.2342 10.8611 27.7714H11.6368C12.9555 27.7714 13.964 26.7685 13.964 25.4571C13.964 24.6085 13.4985 23.9142 12.878 23.5285ZM10.8611 21.5999C11.3265 21.5999 11.6368 21.9085 11.6368 22.3714C11.6368 22.8342 11.3265 23.1428 10.8611 23.1428H9.30961V21.5999H10.8611ZM11.6368 26.2285H9.30961V24.6856H11.6368C12.1022 24.6856 12.4125 24.9942 12.4125 25.4571C12.4125 25.9199 12.1022 26.2285 11.6368 26.2285Z" fill="#0B3A5B"/>
<path d="M14.7383 21.5999C14.7383 22.8156 14.9791 24.0193 15.4469 25.1425C15.9147 26.2656 16.6004 27.2861 17.4647 28.1457C18.3291 29.0053 19.3553 29.6872 20.4847 30.1524C21.6141 30.6176 22.8246 30.8571 24.047 30.8571C25.2695 30.8571 26.4799 30.6176 27.6093 30.1524C28.7387 29.6872 29.7649 29.0053 30.6293 28.1457C31.4937 27.2861 32.1794 26.2656 32.6472 25.1425C33.115 24.0193 33.3558 22.8156 33.3558 21.5999C33.3558 20.3843 33.115 19.1805 32.6472 18.0574C32.1794 16.9342 31.4937 15.9137 30.6293 15.0541C29.7649 14.1945 28.7387 13.5126 27.6093 13.0474C26.4799 12.5822 25.2695 12.3428 24.047 12.3428C22.8246 12.3428 21.6141 12.5822 20.4847 13.0474C19.3553 13.5126 18.3291 14.1945 17.4647 15.0541C16.6004 15.9137 15.9147 16.9342 15.4469 18.0574C14.9791 19.1805 14.7383 20.3843 14.7383 21.5999Z" fill="#B0C4D9"/>
<path d="M24.0474 31.6287C18.4621 31.6287 13.9629 27.1544 13.9629 21.6001C13.9629 16.0458 18.4621 11.5715 24.0474 11.5715C29.6326 11.5715 34.1318 16.0458 34.1318 21.6001C34.1318 27.1544 29.6326 31.6287 24.0474 31.6287ZM24.0474 13.1144C19.3154 13.1144 15.5143 16.8944 15.5143 21.6001C15.5143 26.3058 19.3154 30.0858 24.0474 30.0858C28.7793 30.0858 32.5804 26.3058 32.5804 21.6001C32.5804 16.8944 28.7793 13.1144 24.0474 13.1144Z" fill="#0B3A5B"/>
<path d="M19.0836 28.4657L30.9523 16.6629C30.099 15.5057 28.9354 14.58 27.6167 13.9629L16.291 25.2257C16.9116 26.5372 17.92 27.6172 19.0836 28.4657ZM24.0483 30.0857C28.7803 30.0857 32.5813 26.3057 32.5813 21.6C32.5813 20.4429 32.3486 19.3629 31.9607 18.36L20.7902 29.4686C21.7987 29.8543 22.8847 30.0857 24.0483 30.0857Z" fill="#D5E3EF"/>
<path d="M17.8418 21.5999C17.8418 23.2367 18.4956 24.8064 19.6594 25.9638C20.8233 27.1211 22.4017 27.7713 24.0476 27.7713C25.6935 27.7713 27.272 27.1211 28.4358 25.9638C29.5996 24.8064 30.2535 23.2367 30.2535 21.5999C30.2535 19.9631 29.5996 18.3934 28.4358 17.236C27.272 16.0787 25.6935 15.4285 24.0476 15.4285C22.4017 15.4285 20.8233 16.0787 19.6594 17.236C18.4956 18.3934 17.8418 19.9631 17.8418 21.5999Z" fill="#D5E3EF"/>
<path d="M24.048 15.4287C27.4612 15.4287 30.2538 18.2058 30.2538 21.6001C30.2538 24.9944 27.4612 27.7715 24.048 27.7715C20.6348 27.7715 17.8421 24.9944 17.8421 21.6001C17.8421 18.2058 20.6348 15.4287 24.048 15.4287ZM24.048 14.6572C20.1693 14.6572 17.0664 17.7429 17.0664 21.6001C17.0664 25.4572 20.1693 28.5429 24.048 28.5429C27.9266 28.5429 31.0295 25.4572 31.0295 21.6001C31.0295 17.7429 27.9266 14.6572 24.048 14.6572Z" fill="#0B3A5B"/>
<path d="M18.6175 22.3713C18.6175 18.977 21.4102 16.1999 24.8234 16.1999C26.3748 16.1999 27.6936 16.7399 28.7796 17.6656C27.6936 16.277 25.987 15.4285 24.0476 15.4285C20.6344 15.4285 17.8418 18.2056 17.8418 21.5999C17.8418 23.5285 18.6951 25.2256 20.0914 26.3056C19.1605 25.2256 18.6175 23.9142 18.6175 22.3713Z" fill="#B0C4D9"/>
<path d="M25.8315 15.7371L18.0742 23.4513C18.5397 24.8399 19.4705 26.0742 20.7117 26.8456L29.2447 18.3599C28.469 17.0485 27.3054 16.1228 25.8315 15.7371Z" fill="white"/>
<path d="M25.3666 16.1999C26.6854 16.2771 27.849 16.8171 28.8574 17.5885C28.0817 16.6628 27.0732 16.0456 25.9096 15.6599L25.3666 16.1999ZM20.0917 26.3056C19.3159 25.3799 18.7729 24.1456 18.6954 22.8342L18.1523 23.3742C18.4626 24.5313 19.1608 25.6113 20.0917 26.3056Z" fill="#C9D5E3"/>
<path d="M24.0467 27.7714C27.4599 27.7714 30.2525 24.9943 30.2525 21.6C30.2525 21.1371 30.175 20.5971 30.0974 20.1343L22.6504 27.54C23.0383 27.6943 23.5813 27.7714 24.0467 27.7714Z" fill="white"/>
<path d="M27.1511 20.8286L24.0482 22.3714L20.9453 20.8286L24.0482 16.9714L27.1511 20.8286Z" fill="#0B3A5B"/>
<path d="M20.9453 21.6001L24.0482 23.143L27.1511 21.6001L24.0482 26.2287L20.9453 21.6001Z" fill="#0B3A5B"/>
</g>
<path d="M87.5092 22.7796C86.2349 22.7796 85.2489 22.4276 84.5511 21.7236C83.8634 21.0095 83.5195 20.0038 83.5195 18.7064C83.5195 17.4091 83.8634 16.4084 84.5511 15.7044C85.2489 14.9903 86.2349 14.6333 87.5092 14.6333C88.7835 14.6333 89.7695 14.9903 90.4673 15.7044C91.1651 16.4084 91.514 17.4091 91.514 18.7064C91.514 20.0038 91.1651 21.0095 90.4673 21.7236C89.7695 22.4276 88.7835 22.7796 87.5092 22.7796ZM87.5092 21.3012C88.207 21.3012 88.7379 21.085 89.102 20.6525C89.4661 20.21 89.6481 19.5613 89.6481 18.7064C89.6481 17.8516 89.4661 17.2079 89.102 16.7755C88.7379 16.333 88.207 16.1117 87.5092 16.1117C86.8215 16.1117 86.2905 16.333 85.9164 16.7755C85.5523 17.2079 85.3702 17.8516 85.3702 18.7064C85.3702 19.5613 85.5523 20.21 85.9164 20.6525C86.2905 21.085 86.8215 21.3012 87.5092 21.3012Z" fill="#89C763"/>
<path d="M80.5223 22.7795C79.5919 22.7795 78.9193 22.5884 78.5047 22.2062C78.0901 21.8241 77.8827 21.2005 77.8827 20.3356V16.2625H76.123V14.7841H77.8827V12.2195H79.7638V14.7841H82.4185V16.2625H79.7638V19.8679C79.7638 20.3708 79.8447 20.7228 80.0065 20.9239C80.1784 21.115 80.4768 21.2106 80.9015 21.2106C81.124 21.2106 81.3566 21.1905 81.5993 21.1502C81.8421 21.11 82.0595 21.0547 82.2517 20.9843L82.4185 22.5079C82.0747 22.6085 81.751 22.6789 81.4477 22.7191C81.1443 22.7594 80.8358 22.7795 80.5223 22.7795Z" fill="#89C763"/>
<path d="M72.2157 14.6333C73.2674 14.6333 74.0866 14.9903 74.6732 15.7044C75.2597 16.4184 75.553 17.4191 75.553 18.7064C75.553 19.9938 75.2597 20.9944 74.6732 21.7085C74.0866 22.4226 73.2674 22.7796 72.2157 22.7796C71.6999 22.7796 71.2246 22.6891 70.7897 22.508C70.3649 22.317 70.0059 22.0504 69.7126 21.7085H69.6823V25.7967H67.8164V14.7842H69.5913L69.6064 15.7044H69.6368C69.9402 15.3524 70.3144 15.0859 70.7594 14.9048C71.2043 14.7238 71.6898 14.6333 72.2157 14.6333ZM71.7302 16.1419C71.3459 16.1419 70.997 16.2223 70.6835 16.3832C70.37 16.5442 70.1222 16.7654 69.9402 17.047C69.7683 17.3186 69.6823 17.6354 69.6823 17.9974V19.4155C69.6823 19.7675 69.7683 20.0843 69.9402 20.3659C70.1222 20.6475 70.37 20.8687 70.6835 21.0296C70.997 21.1906 71.3459 21.271 71.7302 21.271C72.3775 21.271 72.873 21.0498 73.2169 20.6072C73.5607 20.1647 73.7326 19.5311 73.7326 18.7064C73.7326 17.8818 73.5607 17.2482 73.2169 16.8056C72.873 16.3631 72.3775 16.1419 71.7302 16.1419Z" fill="#89C763"/>
<path d="M60.2642 25.7965L61.5991 22.5682L58.459 14.799L60.4462 14.7839L62.5093 20.7277H62.5397L64.6483 14.7839H66.6507L62.2059 25.7965H60.2642Z" fill="#89C763"/>
<path d="M52.5879 22.6287V14.7842H54.3779L54.3931 16.2626H54.4234C54.6864 15.9206 54.9948 15.629 55.3488 15.3876C55.7129 15.1362 56.1123 14.9501 56.5472 14.8294C56.9821 14.6987 57.4372 14.6333 57.9125 14.6333V16.2324C57.2754 16.2324 56.6939 16.3531 56.168 16.5944C55.6522 16.8358 55.2376 17.1627 54.924 17.575C54.6206 17.9773 54.4689 18.4299 54.4689 18.9327V22.6287H52.5879Z" fill="#89C763"/>
<path d="M47.082 22.7796C45.8785 22.7796 44.8419 22.5533 43.9722 22.1008C43.1024 21.6482 42.435 20.9995 41.9698 20.1547C41.5147 19.3099 41.2871 18.2992 41.2871 17.1225C41.2871 15.9357 41.5147 14.925 41.9698 14.0902C42.435 13.2454 43.1024 12.5968 43.9722 12.1442C44.8419 11.6916 45.8785 11.4653 47.082 11.4653C48.4574 11.4653 49.676 11.762 50.7379 12.3554L50.298 14.0148C49.2664 13.4315 48.2147 13.1398 47.1427 13.1398C46.3437 13.1398 45.651 13.3008 45.0644 13.6226C44.4778 13.9344 44.0278 14.3869 43.7143 14.9803C43.4008 15.5737 43.244 16.2877 43.244 17.1225C43.244 17.9472 43.4008 18.6612 43.7143 19.2646C44.0278 19.858 44.4778 20.3156 45.0644 20.6374C45.651 20.9492 46.3437 21.1051 47.1427 21.1051C48.1843 21.1051 49.2361 20.8134 50.298 20.2301L50.7379 21.8896C49.676 22.4829 48.4574 22.7796 47.082 22.7796Z" fill="#89C763"/>
<defs>
<clipPath id="clip0_1380_539">
<rect width="34.1321" height="33.9429" fill="white"/>
</clipPath>
</defs>
</svg>
