<svg id="logo_color" xmlns="http://www.w3.org/2000/svg" width="77.257" height="26" viewBox="0 0 77.257 26">
  <path id="Path_6336" data-name="Path 6336" d="M64.2,9.612c.049-.461.112-.89.139-1.32a6.361,6.361,0,0,0-.192-1.949,4.193,4.193,0,0,0-1.03-1.9,3.908,3.908,0,0,0-2.314-1.2,5.249,5.249,0,0,0-4.772,1.763,9.955,9.955,0,0,0-2.2,4.341,9.778,9.778,0,0,0-.228,1.613,7.588,7.588,0,0,0,0,1.236,4.606,4.606,0,0,0,1.052,2.565,3.535,3.535,0,0,0,2.771,1.249,4.823,4.823,0,0,0,2.726-.859A11.049,11.049,0,0,0,61.883,13.8c.958-.895,1.84-1.865,2.713-2.84.4-.447.806-.882,1.209-1.329.662-.731,1.334-1.449,1.979-2.193a6.7,6.7,0,0,1,2.995-2.016,5.379,5.379,0,0,1,1.383-.23A5.063,5.063,0,0,1,74,5.4a4.205,4.205,0,0,1,2.7,2.459,6.547,6.547,0,0,1,.51,2.352c.014.31.054.625.045.935a9.418,9.418,0,0,1-1.025,4.288,8.164,8.164,0,0,1-2.346,2.8,5.66,5.66,0,0,1-2.713,1.1,5.971,5.971,0,0,1-2.243-.133,4.139,4.139,0,0,1-1.871-1.041c-.13-.124-.255-.253-.425-.416-.483,2.29-.958,4.532-1.433,6.778H61.5c.085-.4.166-.8.246-1.192.237-1.143.479-2.29.716-3.433a.988.988,0,0,1,.251-.5c.783-.837,1.553-1.688,2.323-2.534.743-.815,1.486-1.635,2.256-2.481.036.084.067.151.094.221a3.282,3.282,0,0,0,1.079,1.546,2.351,2.351,0,0,0,2.484.257,3.389,3.389,0,0,0,1.674-1.621,9.045,9.045,0,0,0,.971-3.043,4.921,4.921,0,0,0-.1-2.011,1.371,1.371,0,0,0-1.119-.9,2.661,2.661,0,0,0-1.54.412,9.064,9.064,0,0,0-1.6,1.214,21.125,21.125,0,0,0-2.3,2.587c-.752.97-1.5,1.94-2.283,2.884A14.874,14.874,0,0,1,62.8,17.847a4.8,4.8,0,0,1-1.441.842,9.666,9.666,0,0,1-2.82.625c-.519.027-1.039.066-1.558.044a7.447,7.447,0,0,1-4.709-1.763,6.851,6.851,0,0,1-2.126-3.4,8.833,8.833,0,0,1-.367-2.84,14.116,14.116,0,0,1,.416-2.835,14.131,14.131,0,0,1,1.057-2.928,10.238,10.238,0,0,1,2.3-3.074A9.472,9.472,0,0,1,58.069.229a14.932,14.932,0,0,1,1.6-.2,8.789,8.789,0,0,1,1.741.035,7.386,7.386,0,0,1,4.1,1.648,7.152,7.152,0,0,1,2.337,3.65.308.308,0,0,1-.076.328q-.906.983-1.809,1.976c-.519.571-1.034,1.143-1.553,1.71A1.01,1.01,0,0,1,64.2,9.612Z" fill="#00b3ff"/>
  <path id="Path_6337" data-name="Path 6337" d="M5.879,0h-.37Q3.983,7.291,2.464,14.519l-.976,4.649a.285.285,0,0,0,0,.059c0,.011,0,.021,0,.032a.149.149,0,0,1,0,.016.067.067,0,0,0,0,.016l.011.008.021.015h3.9q.359-1.661.706-3.317c.284-1.344.568-2.688.861-4.033h.411l1.7-.019c.85-.01,1.7-.021,2.55-.026a11.965,11.965,0,0,0,2.385-.265,6.5,6.5,0,0,0,2.518-1.04,6.291,6.291,0,0,0,2.015-2.5,7.313,7.313,0,0,0,.663-4.22A4.224,4.224,0,0,0,15.771.231,13.167,13.167,0,0,0,13.1.008C11.381,0,9.662,0,7.943,0ZM8.031,8.78h-.4l.443-2.1c.248-1.172.492-2.328.736-3.49l.128-.006c.069,0,.133-.007.2-.007l.864,0c.672,0,1.343-.006,2.015.007.548.009,1.1.05,1.649.1a1.815,1.815,0,0,1,1.682,2.19,3.419,3.419,0,0,1-2.947,3.066c-.608.091-1.22.151-1.832.182-.564.027-1.126.034-1.688.042C8.593,8.771,8.312,8.774,8.031,8.78Z" fill="#0b41be" fill-rule="evenodd"/>
  <path id="Path_6338" data-name="Path 6338" d="M21.573,7.465a5.121,5.121,0,0,0-.783,1.552c1.062.095,2.1.183,3.136.27l.347.029.022-.05c.037-.085.067-.152.1-.222a1.905,1.905,0,0,1,1.3-1.148,3.4,3.4,0,0,1,1.426-.07,2.147,2.147,0,0,1,.726.259,1.168,1.168,0,0,1,.608,1.038,3.992,3.992,0,0,1-.157,1.064.316.316,0,0,1-.276.268c-.151.028-.3.059-.452.091-.259.054-.519.109-.782.142-.622.077-1.246.142-1.87.206l-.921.1a9.023,9.023,0,0,0-2.091.479,3.659,3.659,0,0,0-2.415,2.586,4.872,4.872,0,0,0-.1,2.146,3.571,3.571,0,0,0,1.842,2.634,4.021,4.021,0,0,0,2.905.361,5.266,5.266,0,0,0,2.669-1.464l.1-.1c.045-.044.094-.092.154-.152.023.142.042.28.06.415a4.678,4.678,0,0,0,.229,1.071,32.131,32.131,0,0,0,3.474-.026c-.008-.031-.014-.06-.021-.09s-.017-.075-.027-.113a6.426,6.426,0,0,1-.109-2.885c.109-.572.226-1.143.343-1.714.094-.46.188-.919.278-1.378.065-.335.137-.668.21-1A16.994,16.994,0,0,0,31.935,9.1a3.265,3.265,0,0,0-.4-1.882A3.753,3.753,0,0,0,29.169,5.46,8.083,8.083,0,0,0,27.038,5.2a9.724,9.724,0,0,0-2.227.2A5.393,5.393,0,0,0,21.573,7.465Zm5.8,5.324c.115-.019.236-.04.366-.06-.011.061-.019.116-.027.167-.015.1-.027.177-.047.255-.038.14-.074.28-.11.42-.094.363-.187.727-.31,1.079a2.858,2.858,0,0,1-2.319,1.887,2.224,2.224,0,0,1-1.006,0,1.421,1.421,0,0,1-1.155-1.126,1.457,1.457,0,0,1,.6-1.61,3.819,3.819,0,0,1,1.234-.519,18.052,18.052,0,0,1,2.224-.409l.1-.013C27.072,12.841,27.219,12.816,27.376,12.789Z" fill="#0b41be" fill-rule="evenodd"/>
  <path id="Path_6339" data-name="Path 6339" d="M.625,23.027,0,26l33.292-1.489,1.622-2.968Z" fill="#0b41be"/>
  <path id="Path_6340" data-name="Path 6340" d="M48.741,5.2c-1.089,0-2.183,0-3.273,0a.417.417,0,0,0-.421.255q-1.362,2.581-2.741,5.152a34.379,34.379,0,0,0-2.254,4.915.831.831,0,0,1-.093.143c-.115-1.779-.368-3.5-.6-5.233s-.469-3.472-.7-5.206H35.048a.817.817,0,0,0-.009.134c.208,1.214.421,2.433.629,3.647.19,1.116.385,2.231.576,3.347l.638,3.71c.155.905.461,2.715.461,2.715l-3.171,5.735H37.9s5.283-8.741,6.607-11.124l4.424-7.957a2.061,2.061,0,0,0,.1-.215C48.918,5.213,48.829,5.2,48.741,5.2Z" fill="#0b41be"/>
</svg>
